<svg fill="white" class="s1-stamp-svg" viewBox="0 0 60 60"><path d="M38.43,49.991c3.993-1.654,7.405-4.454,9.806-8.047c2.401-3.593,3.682-7.818,3.682-12.139
	c0-5.795-2.302-11.353-6.4-15.45c-4.098-4.098-9.655-6.4-15.45-6.4c-4.321,0-8.546,1.281-12.139,3.682
	c-3.593,2.401-6.394,5.813-8.048,9.806c-1.654,3.993-2.086,8.386-1.243,12.624c0.843,4.239,2.924,8.132,5.98,11.188
	c3.056,3.056,6.949,5.137,11.188,5.98C30.044,52.077,34.438,51.644,38.43,49.991z M23.458,40.894c-2.06-0.13-3.65,2.22-3.94,2.59
	c0.252-1.897,0.936-3.71,2-5.3c1.269-1.138,2.431-2.389,3.47-3.74c0.848-1.535,1.321-3.248,1.38-5
	c-0.013-0.129-0.04-0.257-0.08-0.38c0,0-1.58,0.28-3.24-1.67c-0.877-1.137-1.269-2.575-1.09-4c-0.253,0.182-0.459,0.421-0.603,0.697
	s-0.222,0.582-0.227,0.893c-0.044-0.425,0.025-0.855,0.201-1.245c0.176-0.39,0.452-0.726,0.799-0.975
	c-0.383,0.166-0.716,0.426-0.97,0.757c-0.254,0.331-0.419,0.721-0.48,1.133c0.028-0.575,0.255-1.122,0.64-1.55c0,0-0.26,0-0.55,0.6
	c0-0.37,0.72-1.13,1.36-1.19c-0.264-0.027-0.532,0.007-0.781,0.099c-0.25,0.092-0.475,0.239-0.659,0.431
	c0.169-0.194,0.379-0.35,0.613-0.457c0.234-0.107,0.489-0.163,0.747-0.163l-0.39-0.09h-0.14c-0.154-0.044-0.3-0.116-0.43-0.21
	c-0.308-0.154-0.581-0.371-0.802-0.636c-0.22-0.265-0.383-0.573-0.478-0.904c0.162,0.357,0.396,0.677,0.687,0.94
	c0.291,0.263,0.632,0.464,1.003,0.59c-0.344-0.26-0.646-0.601-0.794-0.912c0.251,0.332,0.621,0.647,0.954,0.832
	c-0.09-0.11-0.18-0.21-0.26-0.32c-0.29-0.243-0.543-0.523-0.774-0.822c-0.001-0.049-0.02-0.104-0.006-0.148
	c-0.123-0.176-0.214-0.373-0.27-0.58c0.239,0.408,0.527,0.784,0.86,1.12c-0.392-0.562-0.683-1.188-0.86-1.85
	c-0.187-0.354-0.299-0.742-0.33-1.141c-0.014-0.175-0.005-0.349,0.013-0.523c0.034-0.229,0.074-0.458,0.148-0.678
	c0.242-0.64,0.706-1.173,1.309-1.498l0.06-0.06c0.162-0.642,0.54-1.208,1.069-1.605c0.53-0.397,1.18-0.6,1.841-0.575
	c1.78-1.14,3.38-0.07,4.28,0.79c-0.28-0.36-0.591-0.695-0.93-1c0.561,0.391,1.037,0.891,1.4,1.47l0.23,0.28
	c0.229-0.303,0.559-0.512,0.93-0.59c-0.074,0.055-0.142,0.118-0.2,0.19c0.318-0.132,0.656-0.213,1-0.24
	c0.57,0.019,1.137,0.1,1.69,0.24c0.767-0.137,1.553-0.137,2.32,0c0.34,0.042,0.675,0.119,1,0.23c0.273,0.093,0.535,0.217,0.78,0.37
	c1.324,0.674,2.456,1.671,3.29,2.9c0.425,0.617,0.622,1.363,0.557,2.11c-0.066,0.747-0.39,1.447-0.917,1.98
	c-0.021,0.283-0.064,0.564-0.13,0.84l0.01,0.03c-0.021,0.38-0.021,0.76,0,1.14c0,0.23-0.07,0.41,0,0.48
	c0.034,0.227,0.005,0.458-0.083,0.669c-0.088,0.211-0.232,0.395-0.417,0.531c-0.006,0.023-0.006,0.047,0,0.07
	c0.131,0.035,0.269,0.035,0.4,0c-0.108,0.141-0.265,0.237-0.44,0.27c-0.015,0.753,0.182,1.495,0.57,2.14
	c0.175,0.209,0.279,0.468,0.3,0.74c0,0.28-0.34,0.53-0.59,0.62c-0.25,0.09-0.67,0.23-0.73,0.45c-0.052,0.113-0.079,0.236-0.079,0.36
	c0,0.124,0.027,0.247,0.079,0.36c0,0.09,0.06,0.47-1,0.93c0.083,0.118,0.137,0.253,0.157,0.396c0.021,0.142,0.008,0.288-0.038,0.424
	c-0.19,0.09-0.84,0.48-0.84,0.48s0.15,0.83-0.29,1.22s-1.17,0.9-3.1,0.11c-1-0.41-1.56,0-2.1,1c-0.54,1-1.31,2.43-0.92,3.35
	c1.47,2.958,3.316,5.714,5.49,8.2C25.748,46.554,27.798,41.154,23.458,40.894z"></path></svg>